<svg width="168" height="79" viewBox="0 0 168 79" fill="none" xmlns="http://www.w3.org/2000/svg">
<path d="M165.571 1.47729C165.571 1.47729 163.952 0.263122 163.709 0.0202881C163.466 -0.222546 166.056 1.80107 165.571 1.47729Z" fill="white"/>
<path d="M166.785 8.51943L166.137 7.87189L167.432 9.81457L166.785 8.51943Z" fill="white"/>
<path d="M163.628 12.3239C166.785 14.3475 164.357 10.5431 165.894 10.705L166.704 11.1097L164.599 9.16705C164.276 10.0574 164.923 12.4048 163.628 12.3239Z" fill="white"/>
<path d="M155.938 9.16705C157.153 10.0574 156.505 10.3812 156.667 9.16705H155.938Z" fill="white"/>
<path d="M156.343 8.60046C155.21 8.03385 156.343 8.60046 156.343 8.60046V8.60046Z" fill="white"/>
<path d="M155.372 10.7859L154.886 9.16698C154.158 8.68131 153.672 9.16699 153.348 8.35754C153.429 9.16699 154.077 10.0574 155.372 10.7859Z" fill="white"/>
<path d="M156.91 13.0525V12.4859C156.91 12.4859 156.343 12.243 156.91 13.0525Z" fill="white"/>
<path d="M156.424 11.1096V12.4857C156.909 12.4857 157.8 13.6189 156.424 11.9191C157.476 12.7285 156.748 11.9191 156.424 11.1096Z" fill="white"/>
<path d="M157.152 11.2715C157.962 11.2715 158.69 11.2716 159.176 12.8904C159.662 11.5953 157.557 9.97643 157.152 11.2715Z" fill="white"/>
<path d="M166.38 14.9951H167.595L166.947 13.7809C167.271 14.7523 165.49 14.2666 166.38 14.9951Z" fill="white"/>
<path d="M151.243 12.162L153.591 14.2666V13.2952C152.728 13.1139 151.922 12.7249 151.243 12.162Z" fill="white"/>
<path d="M153.591 14.2666L153.996 15.7236C154.643 15.3998 154.076 14.8332 153.591 14.2666Z" fill="white"/>
<path d="M159.824 16.0473L158.609 13.2143L159.662 16.2902L159.824 16.0473Z" fill="white"/>
<path d="M149.22 13.8618L148.249 12.162L149.625 14.7522L149.22 13.8618Z" fill="white"/>
<path d="M148.087 15.2378C147.358 13.8618 146.144 13.538 145.82 12.6476C145.863 13.6583 146.111 14.6498 146.549 15.5616C146.468 14.8331 146.873 14.6712 148.087 15.2378Z" fill="white"/>
<path d="M147.115 17.2616C147.039 16.6634 146.847 16.0859 146.549 15.5618C146.687 16.144 146.877 16.7129 147.115 17.2616Z" fill="white"/>
<path d="M152.781 16.2901C152.232 15.7061 151.572 15.2381 150.839 14.9141L152.539 16.452L152.781 16.2901Z" fill="white"/>
<path d="M152.862 16.2092C152.862 16.2092 153.024 16.452 152.862 16.2092V16.2092Z" fill="white"/>
<path d="M156.991 16.0474C157.557 17.2615 157.8 18.8804 159.743 19.6089C158.933 18.3138 157.8 17.9091 156.991 16.0474Z" fill="white"/>
<path d="M154.967 18.071H155.938C155.416 17.6191 154.953 17.1023 154.562 16.533L154.967 18.071Z" fill="white"/>
<path d="M155.21 18.8804L154.967 18.071H154.643L155.21 18.8804Z" fill="white"/>
<path d="M149.543 18.071C149.704 18.3106 149.789 18.5923 149.789 18.8805C149.789 19.1686 149.704 19.4503 149.543 19.6899C149.785 19.7995 150.047 19.8561 150.312 19.8561C150.578 19.8561 150.84 19.7995 151.081 19.6899C150.515 18.7995 149.786 17.6663 149.543 18.071Z" fill="white"/>
<path d="M151.163 17.2615C151.163 17.2615 151.405 17.7472 151.163 17.2615V17.2615Z" fill="white"/>
<path d="M151.163 19.6089C151.729 19.6089 151.567 19.6089 151.163 18.5566C151.208 18.8246 151.208 19.0982 151.163 19.3661C151.163 19.3661 151.163 19.7708 151.163 19.6089Z" fill="white"/>
<path d="M146.873 18.7185L148.087 19.3661C147.52 18.8804 146.63 18.2329 146.873 18.7185Z" fill="white"/>
<path d="M150.677 17.2614C150.272 16.7758 150.434 17.2614 150.677 17.2614V17.2614Z" fill="white"/>
<path d="M150.677 17.2615C150.81 17.7412 151 18.2032 151.243 18.6376C151.28 18.3148 151.28 17.989 151.243 17.6663L150.677 17.2615Z" fill="white"/>
<path d="M153.429 34.6646C152.296 32.8838 151.891 30.7792 153.915 31.9934C151.989 28.4138 149.439 25.2067 146.387 22.5229C147.03 23.3313 147.398 24.3237 147.439 25.3559C148.329 26.1654 150.434 26.4082 151.001 28.3509C151.567 30.2936 149.867 28.3509 148.815 27.7033C150.677 29.5651 149.786 31.5887 152.215 34.5836V32.8838C152.619 33.4504 152.862 34.3408 153.429 34.6646Z" fill="white"/>
<path d="M147.682 21.7134C147.196 21.7134 146.467 21.2277 145.172 20.1754C145.278 21.0427 145.583 21.8738 146.063 22.6037L147.52 21.8752L147.682 21.7134Z" fill="white"/>
<path d="M148.896 20.4992C150.111 22.361 150.111 23.6561 151.972 25.275C152.701 24.5465 151.325 23.3323 151.244 22.1991C150.353 23.5751 150.758 20.9849 149.139 20.6611C149.034 20.3458 149.034 20.005 149.139 19.6898H147.844L148.249 20.3373C147.601 20.3373 147.844 20.3373 147.844 19.6898L147.358 21.5515C148.249 21.3896 148.492 21.0658 148.896 20.4992Z" fill="white"/>
<path d="M161.038 23.2516C161.038 23.2516 160.309 22.1993 161.038 22.1184C161.766 22.0374 161.766 22.8469 162.333 23.4135C162.9 23.9801 161.847 21.6327 160.471 21.3899C159.109 21.068 157.854 20.3987 156.829 19.4472C158.132 20.821 159.54 22.0929 161.038 23.2516Z" fill="white"/>
<path d="M155.21 22.4421V24.2229L156.991 25.2752L156.262 24.3848C156.748 24.2229 155.696 23.2515 155.21 22.4421Z" fill="white"/>
<path d="M145.335 21.3898L144.04 19.3661L145.416 22.523L145.335 21.3898Z" fill="white"/>
<path d="M144.201 22.6039L142.987 20.9041L143.392 22.1183L144.201 22.6039Z" fill="white"/>
<path d="M50.7909 71.0897L50.3052 71.6563L50.7909 71.0897Z" fill="white"/>
<path d="M54.029 71.4136V70.4423C53.9481 70.9279 53.8671 71.4136 54.029 71.4136Z" fill="white"/>
<path d="M106.886 40.0881C105.752 38.3882 104.376 35.7171 105.105 37.9026L105.833 40.0071C106.157 39.5215 106.481 39.6833 106.886 40.0881Z" fill="white"/>
<path d="M80.0124 68.1757L79.041 66.7996C79.29 67.3068 79.6179 67.7713 80.0124 68.1757Z" fill="white"/>
<path d="M32.6594 71.4946L31.769 73.6801C32.6594 73.9229 32.6594 72.6278 32.6594 71.4946Z" fill="white"/>
<path d="M129.793 31.9935C128.903 31.346 128.417 31.1841 128.093 31.265C129.226 32.1554 130.522 33.4505 129.793 31.9935Z" fill="white"/>
<path d="M53.3813 47.1301C53.1271 47.545 52.9875 48.0198 52.9766 48.5062C53.2425 48.0967 53.3832 47.6184 53.3813 47.1301Z" fill="white"/>
<path d="M126.96 31.9124C126.96 31.4268 126.96 31.022 127.77 30.9411C127.365 30.6173 126.717 30.2126 126.96 31.9124Z" fill="white"/>
<path d="M144.282 32.0745L144.768 33.0459L144.282 32.0745Z" fill="white"/>
<path d="M139.102 26.0037H138.373C138.614 26.046 138.861 26.046 139.102 26.0037Z" fill="white"/>
<path d="M138.454 25.3559H138.859C138.859 25.3559 138.535 24.6274 138.454 25.3559Z" fill="white"/>
<path d="M137.888 25.7606C137.986 25.7038 138.098 25.6739 138.211 25.6739C138.325 25.6739 138.437 25.7038 138.535 25.7606C138.535 25.7606 137.888 25.3559 137.888 25.7606Z" fill="white"/>
<path d="M5.46226 56.6815C4.8147 57.2481 4.97659 57.1672 5.46226 56.6815V56.6815Z" fill="white"/>
<path d="M101.543 67.3662C101.543 64.5332 102.029 64.776 102.596 65.2617L100.734 58.948L101.543 67.3662Z" fill="white"/>
<path d="M42.9397 71.0898L43.749 73.1943C42.1301 76.4321 41.3208 75.137 42.0493 78.132C42.8587 71.0898 46.3393 78.132 47.0678 70.766L47.7154 72.3039C47.7154 72.3039 47.7154 72.3039 47.2297 72.3039C48.363 75.7846 48.6057 67.2854 50.3055 68.4186C50.6133 68.7326 50.8232 69.1294 50.9094 69.5606C50.9956 69.9918 50.9546 70.4387 50.7913 70.8469L52.2483 69.1471C52.2483 69.1471 52.2483 70.5232 52.2483 70.3613L54.3528 69.9565C54.3528 68.8233 55.4861 67.1235 55.8098 66.395C56.2955 67.4473 55.8098 67.1235 55.8098 68.0139L56.9431 66.3141C57.3478 68.1758 56.3765 69.9565 55.567 69.7137C56.3765 76.7559 56.6192 67.9329 58.8048 72.142L57.6715 72.9515C58.3191 76.9987 59.2095 75.5417 60.4236 78.132C60.4236 76.7559 57.9953 71.7373 59.2904 70.0375C59.2904 70.5232 60.0999 70.766 60.8284 69.3899C60.8284 71.8992 61.476 71.3326 62.2854 71.1707V74.4895C63.1758 73.5991 63.1758 71.8992 63.6615 70.3613C64.6328 70.3613 64.8756 73.2753 65.1184 75.4608C66.7373 75.9464 63.9853 71.3326 65.847 70.6041C67.2231 71.8992 68.1135 70.6041 69.6514 68.4186C70.6228 69.5518 69.6514 70.5232 69.6514 71.4135L70.3799 68.7424C70.3799 68.7424 70.3799 69.6328 70.3799 70.0375C71.0275 68.9852 70.3799 66.7188 71.3512 65.7474C71.3512 62.1049 73.7796 71.0898 74.9128 66.7997C74.9128 67.6901 74.9128 68.8233 74.9128 70.1184C76.1495 68.3244 77.0542 66.3231 77.584 64.2095L78.96 66.3141C78.2016 63.6321 78.4019 60.7697 79.5266 58.2196C79.1219 57.0864 78.7981 56.0341 78.5553 55.5484L79.9313 53.6057C80.1544 54.6462 80.1544 55.7221 79.9313 56.7626V55.8722C80.3992 57.5123 80.3992 59.2506 79.9313 60.8907L79.122 58.9481C78.9215 61.0208 78.9215 63.1081 79.122 65.1808C79.1911 64.8334 79.3286 64.5032 79.5266 64.2095C79.4875 64.6673 79.4875 65.1277 79.5266 65.5855C79.5266 65.9903 79.5266 65.5855 79.5266 64.3714L80.2552 68.0139V66.5569C81.0087 67.3204 81.8205 68.0241 82.6834 68.6614C83.8166 64.6951 84.4643 59.029 86.5688 57.2482C86.6083 59.808 86.9067 62.3573 87.4592 64.857C86.407 61.5383 85.7594 66.5569 84.3833 66.0712C85.1118 66.0712 85.1928 67.852 85.0309 68.4186L86.9736 65.0189C86.9736 67.6901 87.702 66.9616 88.4305 67.9329C87.2973 62.8334 89.6447 64.2904 90.2922 62.5906C90.2922 64.2904 90.697 66.0712 89.4829 65.8284C91.3446 69.5518 90.2114 59.5956 91.9112 62.6715C91.9112 62.6715 91.4256 62.6715 91.9112 63.4C91.9112 61.7002 94.0158 62.6715 93.9348 64.2095C94.6499 64.3071 95.378 64.2294 96.0564 63.9831C96.7348 63.7368 97.3432 63.3293 97.8291 62.7956C98.3149 62.2619 98.6638 61.6181 98.8456 60.9197C99.0273 60.2212 99.0365 59.489 98.8724 58.7862C98.8724 59.3528 99.6818 64.0476 99.7628 65.0189C99.7628 59.9194 99.7628 54.8199 99.7628 49.7204C100.329 53.5248 103.405 62.1049 102.353 64.5333C102.92 65.0189 103.567 65.5046 104.215 63.9666C103.343 62.189 102.795 60.2704 102.596 58.3005C103.52 60.1808 104.661 61.9467 105.996 63.5619C105.348 62.8334 104.458 56.9245 105.186 56.9245C105.915 56.9245 106.643 62.6715 106.562 63.3191V57.2482C106.805 59.4567 107.464 61.5992 108.505 63.5619C108.1 62.5097 110.043 63.5619 110.367 62.6715L109.314 61.5383C111.5 61.5383 109.314 53.0391 110.933 52.7963C110.933 54.0104 112.39 60.1622 113.604 60.8907C112.563 55.2597 112.101 49.5366 112.228 43.8114L113.038 45.3494L113.604 43.0829C114.448 49.1158 114.827 55.2045 114.738 61.2955C115.871 62.3477 115.547 63.1572 116.599 62.6715C116.93 63.0539 117.111 63.5423 117.111 64.0476C117.111 64.5529 116.93 65.0413 116.599 65.4237H119.513C118.299 62.1859 120.404 61.5383 119.513 58.7052C119.028 60.2432 118.461 61.6192 117.894 63.0763C116.761 59.6766 116.518 53.1201 118.299 53.1201C119.222 55.4232 119.927 57.8081 120.404 60.2432C120.404 59.029 121.294 57.4911 121.78 58.2196V60.2432C123.237 61.1336 121.78 55.3056 124.127 58.0577C124.613 58.0577 126.96 61.8621 126.313 59.8385C123.395 54.0504 121.011 48.0086 119.19 41.7878C120.809 43.1888 122.299 44.733 123.642 46.4016C125.422 49.0728 125.341 53.6867 126.879 56.0341C126.748 55.1756 126.748 54.3023 126.879 53.4438C127.527 54.0914 127.77 56.2769 128.498 55.5484C127.365 52.1487 130.441 55.0627 127.851 52.5534C128.336 51.2583 128.984 52.5534 129.955 52.5534C128.718 49.7821 128.137 46.763 128.255 43.7305C128.598 44.5336 129.032 45.2942 129.55 45.9969C131.412 45.9969 133.031 46.7254 134.569 45.9969C135.055 46.7254 136.35 47.2921 136.674 48.83C136.674 48.1015 136.674 46.8873 136.674 46.6445C139.021 48.9109 135.783 47.6158 138.131 50.5298C137.321 48.6681 138.131 47.373 138.131 45.835C136.431 43.0829 136.269 45.835 136.107 47.6158C134.275 44.1383 133.541 40.1869 134.002 36.2835C134.65 34.7456 135.783 38.55 135.702 37.9024C138.454 37.4168 134.002 29.808 137.321 31.9126C138.948 33.8686 140.284 36.0497 141.287 38.3881C140.802 39.9261 138.94 37.7406 138.292 38.3881L139.749 39.0357C139.749 40.0879 139.749 41.0593 138.778 40.5736C140.64 42.4354 142.987 38.7119 145.982 39.6832C145.982 38.7119 145.982 37.4977 145.011 36.6883V37.4168C143.311 35.717 144.363 34.0981 143.149 33.6124C143.149 31.8316 142.502 29.1604 144.121 29.6461L146.063 32.1554C145.497 31.4269 144.363 31.0222 144.606 32.1554C144.606 30.6984 148.491 34.8266 146.711 31.0222L144.768 29.5652C144.768 27.7844 143.473 24.3847 144.768 24.7085C142.583 22.3611 144.768 25.1132 142.097 22.442C145.173 25.9226 139.911 23.6562 143.392 27.2178C140.397 23.98 141.287 26.3274 138.616 23.7371C139.183 24.6275 139.911 25.2751 139.021 25.2751C138.996 25.5714 138.996 25.8692 139.021 26.1655C139.463 26.5006 139.87 26.8803 140.235 27.2987C141.206 29.6461 140.235 30.2127 140.235 31.5888C139.507 31.5888 139.75 30.3746 138.94 29.5652V31.5078C137.645 29.5651 135.783 28.8366 136.107 27.0559H135.136C134.002 26.2464 133.031 26.1655 133.031 27.0559C132.383 27.0559 133.031 29.9699 133.031 28.1081L132.303 30.2127V29.727C130.765 29.727 131.008 34.6647 127.446 31.6697C127.446 32.4791 127.446 33.3695 125.908 33.1267L124.937 31.3459C124.937 32.2363 122.185 30.2936 122.751 32.3982C119.918 27.6225 119.19 32.3982 117.652 32.3982L118.542 34.8265C117.733 34.8265 117.247 35.9598 116.599 37.3358L117.409 39.5213C117.409 41.6259 114.576 38.7928 113.281 39.5213C113.281 38.631 113.281 38.7119 113.928 39.5213C110.69 35.1503 111.581 44.2971 108.829 41.0593C108.829 42.0306 108.343 41.8687 107.938 41.0593L107.129 40.007L107.857 41.0593C107.429 41.3845 107.117 41.8385 106.967 42.3544L106.077 39.9261C105.429 39.1166 106.077 41.1402 106.805 42.921C106.757 43.4596 106.757 44.0014 106.805 44.5399C105.348 40.7355 105.915 46.1588 104.377 42.1116C104.377 44.2161 102.515 44.2161 103.243 48.5871C103.243 48.0205 103.243 47.7777 103.243 47.6967C103.243 47.6158 101.948 46.9683 101.786 48.2634L100.896 45.1875V49.6394C99.7205 48.1201 99.1704 46.2089 99.3581 44.2971C98.5487 48.4253 98.3867 45.9969 97.7391 49.9632V47.9396C97.2535 47.9396 96.9297 50.9345 96.3631 49.3156C94.5014 45.6731 90.697 49.8823 87.2164 46.5635C88.5925 52.5534 85.5166 44.0542 86.0832 48.749C85.6785 47.292 85.1927 46.5635 85.5165 45.2684C84.2214 46.8873 83.0882 43.2448 82.5216 47.373C82.5216 45.916 82.5216 45.1875 82.5216 44.378C82.5216 43.5686 82.5216 45.6731 81.9549 44.8637C81.3883 44.0542 81.9549 43.6495 81.9549 43.002C80.5789 43.002 80.8218 47.7777 81.1456 51.9868C80.1742 50.0442 79.8504 50.3679 79.5266 53.1201C79.5266 51.8249 78.5552 50.3679 79.5266 49.8823C78.96 49.8823 76.127 48.1015 76.2888 51.4202C76.2888 50.6108 75.5603 51.4202 75.3984 51.4202C75.2366 51.4202 74.1033 51.0155 72.9701 51.4202V51.9059C72.9701 55.9531 71.9988 52.8772 71.1084 53.3629V52.9582C68.761 50.1251 70.1371 54.4152 67.9515 51.0964V53.6057C67.9515 59.029 65.928 50.5298 64.7138 52.5534L65.1995 54.0105C64.471 55.8722 63.2567 46.7254 62.6092 45.916C61.9616 45.1065 62.6092 45.1875 63.0139 44.8637C61.3141 41.6259 63.0139 48.1015 61.4759 48.83C61.4759 47.1302 61.476 44.378 60.9903 44.0543C60.5046 43.7305 58.3191 49.7204 57.1859 46.3207C57.6397 47.5204 57.6397 48.8445 57.1859 50.0442C56.1336 50.5298 54.8385 44.7827 53.7862 48.9919C53.7461 48.6423 53.7461 48.2892 53.7862 47.9396C52.9768 48.9919 51.3578 49.6394 50.7103 51.9059C50.7103 43.3257 45.8537 55.7103 46.5822 47.7777H44.3157V46.9682C43.0206 46.3207 42.2921 48.1824 41.5636 50.0442C41.5636 49.4775 41.5636 48.749 41.5636 48.3443C39.7019 46.4016 39.459 46.7254 37.1925 50.3679V47.8586C36.464 49.2347 34.9261 43.4067 32.4168 45.9969C32.5083 45.5927 32.6729 45.2087 32.9025 44.8637C29.9885 47.373 29.0981 36.7692 26.2651 45.835L24.3224 47.7777C26.1031 48.9109 23.1081 51.663 23.5129 53.3629C22.6225 53.3629 22.2178 50.1251 23.5129 49.8823V50.3679C24.9699 45.6731 21.5702 48.1015 22.3796 44.8637C18.5752 44.1352 15.8231 40.4927 12.5853 39.1976L11.7759 42.921L10.6427 42.3544C10.6427 41.3831 11.2093 39.3594 12.0187 39.7642C12.0187 37.5787 9.99517 41.0593 9.67139 41.7878C8.53817 39.7642 11.7759 37.8215 11.3712 37.5787H10.5617V38.0643C9.50945 39.3595 8.86189 40.8974 7.9715 40.4117C7.08111 39.9261 8.45717 38.0644 7.9715 37.8215C7.48583 37.5787 7.9715 37.4168 7.9715 37.8215L6.67642 36.9311L6.19077 40.007C4.9766 41.1403 4.89563 39.2785 4.32901 42.7591C5.21941 37.4977 -0.446735 38.7928 -0.365791 37.0121C-2.14658 38.55 -3.03694 38.1453 -4.00828 37.0121C-4.00828 37.6596 -5.30341 40.8165 -6.11286 40.007C-2.71318 33.9362 -6.11286 36.4455 -4.97964 31.9126C-5.78909 35.2313 -7.89365 31.3459 -9.02687 36.0407C-9.51254 35.1503 -7.89366 33.6933 -7.65083 31.9126C-10.8077 33.4505 -10.6458 28.27 -13.1551 27.8653C-13.7217 28.5938 -14.0454 30.0508 -15.2596 30.9412L-13.8835 26.3274C-14.5311 26.3274 -17.1213 30.5365 -16.15 27.3796C-16.15 28.1081 -16.9594 29.1604 -17.3642 29.2414C-18.2546 26.0845 -20.6829 25.437 -22.9494 24.3037C-25.2158 23.1705 -27.0775 21.3897 -26.1062 16.7759C-26.8347 18.5567 -27.2394 18.3948 -27.7251 18.152C-28.2107 17.9091 -29.1821 19.8518 -29.9915 20.8231L-29.1011 16.8568C-31.7723 19.1233 -30.8819 15.5617 -33.3103 17.7472H-32.4199C-35.8196 19.9327 -37.5194 24.8704 -41 28.4319C-37.1956 25.9226 -43.2665 35.4741 -37.6003 31.8316C-37.6003 32.8839 -38.8955 32.8839 -39.4621 33.8552C-37.7623 32.5601 -37.0337 32.5601 -36.8718 33.8552C-34.2816 35.3932 -34.6054 37.8215 -32.6627 40.9784L-31.3676 38.7928C-31.1652 39.4798 -31.1652 40.2105 -31.3676 40.8974C-28.5346 38.3881 -32.8246 39.5213 -29.8297 36.6073C-32.0152 41.3831 -25.8634 39.6023 -28.4536 44.7018C-27.4823 45.3494 -27.1585 42.1925 -26.2681 42.7591L-26.8347 44.2162L-25.5396 42.7591C-25.0539 43.4067 -25.5396 45.1875 -26.5109 46.3207C-26.5109 46.3207 -27.1585 46.3207 -27.3204 46.3207C-27.3204 48.3443 -24.7301 47.2111 -24.7301 47.8586L-25.2158 46.5635C-21.8161 46.5635 -19.6306 50.5298 -15.5834 48.9919V47.8586C-12.6694 46.9683 -14.612 49.8013 -12.0218 50.0442C-11.0504 49.2347 -10.241 48.9919 -9.75534 49.3966C-10.8886 50.3679 -9.75535 52.2297 -11.2124 53.282C-8.05551 52.1487 -9.35065 52.1487 -6.11286 48.83L-6.59851 50.6917C-5.38433 49.3157 -4.97963 48.5062 -3.76545 48.5062C-5.3034 49.6394 -4.25113 51.5821 -6.11286 53.1201C-5.38436 58.0577 -1.01333 50.5298 -2.30845 56.7626C0.767452 52.2297 -3.19884 53.201 -2.30845 52.3916C-1.41806 51.5821 0.0389366 48.9919 0.524605 49.8013C1.01027 50.6108 -0.689533 56.6816 1.25314 57.3292C1.25314 57.3292 1.25314 57.3292 0.686527 57.3292C0.686527 58.8671 2.71012 56.115 2.87201 58.4624C4.40996 55.6293 3.92429 59.029 5.46223 55.2246H3.35765C4.73372 54.4961 7.24302 50.206 8.05246 53.0391C7.58992 53.8185 6.98598 54.5048 6.27167 55.0627C6.27167 56.4388 7.48587 55.0627 7.56681 56.0341C6.10981 59.8385 5.13843 56.0341 3.03387 58.7052C3.03387 60.567 6.02886 56.6007 4.08619 60.6479C6.67642 55.5484 5.78602 62.024 8.37625 58.3005L7.56681 60.6479C7.56681 60.6479 8.70004 59.3528 9.02382 59.5147L7.40489 62.3477C9.26662 60.0813 8.781 65.2618 10.238 64.2095C8.0525 63.6429 10.6427 61.1336 10.238 59.1909C13.7996 56.7626 10.238 65.8284 13.2329 65.5855C12.7472 65.5855 12.0997 63.7238 13.2329 62.7525C13.8422 63.6948 14.1785 64.7875 14.2043 65.9093C16.3088 65.9093 14.2043 63.4 15.7422 62.1859C15.7422 65.2618 17.0374 61.2145 18.1706 60.486L17.523 62.9144C19.3848 65.0189 19.3848 57.9767 20.9227 60.3241L19.3038 63.5619L20.518 62.9144L19.6276 65.6665C21.3274 63.8857 21.5703 64.4523 22.4607 65.6665C22.4607 63.8048 23.6748 61.2145 24.6461 61.3764C24.6461 62.9144 23.7558 63.6429 25.2128 63.5619C24.6461 65.0189 23.8367 66.8807 23.6748 64.4523C23.6748 65.2618 23.0272 65.9903 22.7844 66.7188C22.5416 67.4473 24.6462 67.5282 25.1319 67.6092C25.0805 67.4946 25.0539 67.3704 25.0539 67.2449C25.0539 67.1193 25.0805 66.9952 25.1319 66.8807L27.8839 63.8857C27.9818 64.7226 27.7495 65.5647 27.2364 66.2331C27.6411 66.2331 28.2077 65.0189 28.8552 64.857C28.2886 66.8807 27.9649 68.9852 26.8316 69.7137L29.3409 67.9329C29.3409 68.8233 29.9075 70.5232 29.3409 71.1707C30.2313 72.6277 32.7406 67.771 33.9548 69.5518C34.101 69.1657 34.3536 68.829 34.6833 68.5805C35.9784 69.2281 36.9497 71.8992 38.9733 69.3899L39.3781 73.1134C40.8351 72.4659 38.7305 68.4186 40.9969 67.2854C43.2634 66.1522 40.997 70.4422 41.6445 71.4945C42.6159 69.7137 44.3157 66.1521 45.4489 69.228C43.6682 71.4135 43.3444 70.847 42.9397 71.0898ZM59.1286 70.4422C59.1286 70.9279 58.1573 72.5468 57.9954 71.0898C58.1573 68.1758 58.4001 69.6328 58.8858 70.4422H59.1286ZM82.6025 63.481C82.6025 64.2904 82.0359 63.481 81.5502 62.9953C81.0645 62.5097 81.955 62.8334 82.3597 63.481H82.6025ZM136.026 29.0795C134.812 28.6748 135.217 28.9176 135.783 29.0795H136.026ZM137.564 29.0795C137.515 28.7507 137.375 28.4423 137.159 28.1891C137.159 28.7557 137.159 28.9176 137.159 28.9176C137.159 28.9176 137.321 30.1318 137.321 29.4033L137.564 29.0795ZM7.48585 39.0357V39.7642C6.43357 40.5736 6.83831 40.007 7.24303 39.3595L7.48585 39.0357Z" fill="white"/>
<path d="M80.0124 67.1234C79.9733 66.6655 79.9733 66.2052 80.0124 65.7473C79.9211 65.9652 79.874 66.1991 79.874 66.4353C79.874 66.6716 79.9211 66.9055 80.0124 67.1234Z" fill="white"/>
<path d="M128.012 57.7339C127.605 57.4767 127.249 57.1475 126.96 56.7626C127.203 57.1673 127.527 57.7339 128.012 57.7339Z" fill="white"/>
<path d="M140.478 22.4421V23.4134C140.478 23.4134 141.044 23.4134 141.449 23.4134C141.854 23.4134 140.316 22.604 140.478 22.4421Z" fill="white"/>
<path d="M155.129 31.1841C155.129 31.1841 155.129 31.1841 155.129 30.6174L154.4 29.7271C154.318 29.8666 154.273 30.0245 154.267 30.1862C154.262 30.348 154.297 30.5085 154.369 30.6533C154.442 30.798 154.549 30.9224 154.682 31.0151C154.814 31.1078 154.968 31.1659 155.129 31.1841Z" fill="white"/>
<path d="M145.982 29.0794C147.196 30.7792 147.196 29.8889 147.439 29.0794C145.982 26.813 145.982 27.9462 145.982 29.0794Z" fill="white"/>
<path d="M147.277 29.1604C147.409 29.1171 147.551 29.1171 147.682 29.1604C147.115 27.7843 147.358 28.6747 147.277 29.1604Z" fill="white"/>
<path d="M137.888 27.4605C138.373 27.4605 136.674 25.0322 137.24 25.7607C136.188 23.2514 137.888 29.4032 137.888 27.4605Z" fill="white"/>
<path d="M150.029 34.5838L148.33 32.5602L149.301 34.5029L150.029 34.5838Z" fill="white"/>
<path d="M145.011 35.5549H145.982C145.917 35.4155 145.883 35.2636 145.883 35.1097C145.883 34.9559 145.917 34.8039 145.982 34.6646C145.415 34.9883 144.606 34.9074 145.011 35.5549Z" fill="white"/>
<path d="M145.982 34.7455C146.036 34.6928 146.079 34.6298 146.108 34.5603C146.137 34.4908 146.152 34.4162 146.152 34.3408C146.152 34.2654 146.137 34.1908 146.108 34.1213C146.079 34.0518 146.036 33.9889 145.982 33.9361C145.91 34.2011 145.91 34.4806 145.982 34.7455Z" fill="white"/>
<path d="M149.382 35.9599L148.815 35.6361L148.167 35.8789L149.382 35.9599Z" fill="white"/>
<path d="M135.945 40.088L135.378 41.2212C135.378 42.0306 136.188 42.4353 136.35 41.9497C136.512 41.464 136.512 40.7355 135.945 40.088Z" fill="white"/>
<path d="M142.097 44.9447C141.562 44.506 141.097 43.9872 140.721 43.4067L142.259 46.3208L142.097 44.9447Z" fill="white"/>
<path d="M139.668 47.0491C139.668 47.9395 139.668 50.044 140.559 49.3155C140.235 48.4251 140.883 47.2919 139.668 47.0491Z" fill="white"/>
<path d="M123.237 49.8821L123.479 49.7203L121.537 44.7827L123.237 49.8821Z" fill="white"/>
<path d="M113.604 66.476C115.223 67.2854 113.037 63.2382 114.575 64.4524C114.575 63.1572 113.28 63.481 113.28 62.3478C112.552 63.8048 111.985 63.2382 113.604 66.476Z" fill="white"/>
<path d="M112.957 62.3477V61.4573C112.893 61.7507 112.893 62.0543 112.957 62.3477Z" fill="white"/>
<path d="M61.1519 77.3224V76.513C61.1519 75.6226 61.1518 75.5417 60.4233 75.3798L61.1519 77.3224Z" fill="white"/>
<path d="M49.4961 74.3275L49.658 74.4084L49.4961 71.3325V74.3275Z" fill="white"/>
<path d="M39.1353 77.3225C39.1353 77.3225 40.1066 76.8368 40.5113 77.3225C39.54 77.4844 39.54 73.9228 39.1353 77.3225Z" fill="white"/>
</svg>
