<svg width="216" height="179" viewBox="0 0 216 179" fill="none" xmlns="http://www.w3.org/2000/svg">
<rect width="216" height="179" fill="white"/>
<line x1="4.37114e-08" y1="30.5" x2="216" y2="30.5" stroke="#E2E2E2"/>
<circle cx="13.5" cy="14.5" r="2.5" fill="#6D6D6D"/>
<circle cx="20.5" cy="14.5" r="2.5" fill="#6D6D6D"/>
<circle cx="27.5" cy="14.5" r="2.5" fill="#6D6D6D"/>
<path d="M20.8125 105.5H195.188C198.107 105.5 200.5 107.947 200.5 111V162C200.5 165.053 198.107 167.5 195.188 167.5H20.8125C17.8933 167.5 15.5 165.053 15.5 162V111C15.5 107.947 17.8933 105.5 20.8125 105.5Z" fill="white" stroke="#747776"/>
<path d="M180.322 114H27.6782C25.6468 114 24 115.791 24 118C24 120.209 25.6468 122 27.6782 122H180.322C182.353 122 184 120.209 184 118C184 115.791 182.353 114 180.322 114Z" fill="#747776"/>
<path d="M58 126H28C25.7909 126 24 127.791 24 130C24 132.209 25.7909 134 28 134H58C60.2091 134 62 132.209 62 130C62 127.791 60.2091 126 58 126Z" fill="#747776"/>
</svg>
