<svg width="216" height="179" viewBox="0 0 216 179" fill="none" xmlns="http://www.w3.org/2000/svg">
<rect width="216" height="179" fill="white"/>
<line x1="4.37114e-08" y1="30.5" x2="216" y2="30.5" stroke="#E2E2E2"/>
<circle cx="13.5" cy="14.5" r="2.5" fill="#6D6D6D"/>
<circle cx="20.5" cy="14.5" r="2.5" fill="#6D6D6D"/>
<circle cx="27.5" cy="14.5" r="2.5" fill="#6D6D6D"/>
<path d="M27.896 123.938L30.63 129.467C30.7018 129.612 30.8077 129.738 30.9387 129.833C31.0697 129.928 31.2218 129.99 31.382 130.013L37.495 130.901C37.6797 130.928 37.8532 131.006 37.9959 131.126C38.1386 131.246 38.2447 131.404 38.3024 131.582C38.36 131.759 38.3669 131.949 38.3221 132.131C38.2773 132.312 38.1827 132.477 38.049 132.607L33.626 136.918C33.51 137.031 33.4233 137.171 33.3733 137.325C33.3233 137.479 33.3115 137.643 33.339 137.803L34.383 143.891C34.4145 144.075 34.3939 144.264 34.3236 144.437C34.2533 144.61 34.136 144.759 33.9851 144.869C33.8341 144.979 33.6555 145.044 33.4694 145.057C33.2833 145.071 33.0971 145.032 32.932 144.945L27 141.828L21.068 144.945C20.9029 145.032 20.7169 145.07 20.5309 145.057C20.345 145.043 20.1666 144.978 20.0158 144.868C19.865 144.759 19.7478 144.609 19.6775 144.436C19.6072 144.264 19.5866 144.075 19.618 143.891L20.661 137.803C20.6885 137.643 20.6767 137.479 20.6267 137.325C20.5767 137.171 20.49 137.031 20.374 136.918L15.95 132.607C15.8163 132.477 15.7217 132.312 15.6769 132.131C15.6321 131.949 15.639 131.759 15.6966 131.582C15.7542 131.404 15.8604 131.246 16.0031 131.126C16.1458 131.006 16.3193 130.928 16.504 130.901L22.617 130.013C22.7772 129.99 22.9293 129.928 23.0603 129.833C23.1913 129.738 23.2972 129.612 23.369 129.467L26.103 123.938C26.1857 123.771 26.3135 123.631 26.4718 123.532C26.6301 123.434 26.8127 123.382 26.999 123.382C27.1853 123.382 27.3679 123.434 27.5262 123.532C27.6845 123.631 27.8123 123.771 27.895 123.938H27.896Z" fill="#747776"/>
<path d="M68.896 123.938L71.63 129.467C71.7018 129.612 71.8077 129.738 71.9387 129.833C72.0697 129.928 72.2218 129.99 72.382 130.013L78.495 130.901C78.6797 130.928 78.8532 131.006 78.9959 131.126C79.1386 131.246 79.2447 131.404 79.3024 131.582C79.36 131.759 79.3669 131.949 79.3221 132.131C79.2773 132.312 79.1827 132.477 79.049 132.607L74.626 136.918C74.51 137.031 74.4233 137.171 74.3733 137.325C74.3233 137.479 74.3115 137.643 74.339 137.803L75.383 143.891C75.4145 144.075 75.3939 144.264 75.3236 144.437C75.2533 144.61 75.136 144.759 74.9851 144.869C74.8341 144.979 74.6555 145.044 74.4694 145.057C74.2833 145.071 74.0971 145.032 73.932 144.945L68 141.828L62.068 144.945C61.9029 145.032 61.7169 145.07 61.5309 145.057C61.345 145.043 61.1666 144.978 61.0158 144.868C60.865 144.759 60.7478 144.609 60.6775 144.436C60.6072 144.264 60.5866 144.075 60.618 143.891L61.661 137.803C61.6885 137.643 61.6767 137.479 61.6267 137.325C61.5767 137.171 61.49 137.031 61.374 136.918L56.95 132.607C56.8163 132.477 56.7217 132.312 56.6769 132.131C56.6321 131.949 56.639 131.759 56.6966 131.582C56.7542 131.404 56.8604 131.246 57.0031 131.126C57.1458 131.006 57.3193 130.928 57.504 130.901L63.617 130.013C63.7772 129.99 63.9293 129.928 64.0603 129.833C64.1913 129.738 64.2972 129.612 64.369 129.467L67.103 123.938C67.1857 123.771 67.3135 123.631 67.4718 123.532C67.6301 123.434 67.8127 123.382 67.999 123.382C68.1853 123.382 68.3679 123.434 68.5262 123.532C68.6845 123.631 68.8123 123.771 68.895 123.938H68.896Z" fill="#747776"/>
<path d="M109.896 123.938L112.63 129.467C112.702 129.612 112.808 129.738 112.939 129.833C113.07 129.928 113.222 129.99 113.382 130.013L119.495 130.901C119.68 130.928 119.853 131.006 119.996 131.126C120.139 131.246 120.245 131.404 120.302 131.582C120.36 131.759 120.367 131.949 120.322 132.131C120.277 132.312 120.183 132.477 120.049 132.607L115.626 136.918C115.51 137.031 115.423 137.171 115.373 137.325C115.323 137.479 115.312 137.643 115.339 137.803L116.383 143.891C116.415 144.075 116.394 144.264 116.324 144.437C116.253 144.61 116.136 144.759 115.985 144.869C115.834 144.979 115.655 145.044 115.469 145.057C115.283 145.071 115.097 145.032 114.932 144.945L109 141.828L103.068 144.945C102.903 145.032 102.717 145.07 102.531 145.057C102.345 145.043 102.167 144.978 102.016 144.868C101.865 144.759 101.748 144.609 101.678 144.436C101.607 144.264 101.587 144.075 101.618 143.891L102.661 137.803C102.688 137.643 102.677 137.479 102.627 137.325C102.577 137.171 102.49 137.031 102.374 136.918L97.95 132.607C97.8163 132.477 97.7217 132.312 97.6769 132.131C97.6321 131.949 97.639 131.759 97.6966 131.582C97.7542 131.404 97.8604 131.246 98.0031 131.126C98.1458 131.006 98.3193 130.928 98.504 130.901L104.617 130.013C104.777 129.99 104.929 129.928 105.06 129.833C105.191 129.738 105.297 129.612 105.369 129.467L108.103 123.938C108.186 123.771 108.313 123.631 108.472 123.532C108.63 123.434 108.813 123.382 108.999 123.382C109.185 123.382 109.368 123.434 109.526 123.532C109.685 123.631 109.812 123.771 109.895 123.938H109.896Z" fill="#747776"/>
<path d="M150.896 123.938L153.63 129.467C153.702 129.612 153.808 129.738 153.939 129.833C154.07 129.928 154.222 129.99 154.382 130.013L160.495 130.901C160.68 130.928 160.853 131.006 160.996 131.126C161.139 131.246 161.245 131.404 161.302 131.582C161.36 131.759 161.367 131.949 161.322 132.131C161.277 132.312 161.183 132.477 161.049 132.607L156.626 136.918C156.51 137.031 156.423 137.171 156.373 137.325C156.323 137.479 156.312 137.643 156.339 137.803L157.383 143.891C157.415 144.075 157.394 144.264 157.324 144.437C157.253 144.61 157.136 144.759 156.985 144.869C156.834 144.979 156.655 145.044 156.469 145.057C156.283 145.071 156.097 145.032 155.932 144.945L150 141.828L144.068 144.945C143.903 145.032 143.717 145.07 143.531 145.057C143.345 145.043 143.167 144.978 143.016 144.868C142.865 144.759 142.748 144.609 142.678 144.436C142.607 144.264 142.587 144.075 142.618 143.891L143.661 137.803C143.688 137.643 143.677 137.479 143.627 137.325C143.577 137.171 143.49 137.031 143.374 136.918L138.95 132.607C138.816 132.477 138.722 132.312 138.677 132.131C138.632 131.949 138.639 131.759 138.697 131.582C138.754 131.404 138.86 131.246 139.003 131.126C139.146 131.006 139.319 130.928 139.504 130.901L145.617 130.013C145.777 129.99 145.929 129.928 146.06 129.833C146.191 129.738 146.297 129.612 146.369 129.467L149.103 123.938C149.186 123.771 149.313 123.631 149.472 123.532C149.63 123.434 149.813 123.382 149.999 123.382C150.185 123.382 150.368 123.434 150.526 123.532C150.685 123.631 150.812 123.771 150.895 123.938H150.896Z" fill="#747776"/>
<path d="M201.146 130.347L195.112 129.827C194.931 129.811 194.757 129.747 194.61 129.64C194.463 129.533 194.348 129.388 194.277 129.221L191.921 123.671C191.844 123.49 191.716 123.336 191.552 123.228C191.389 123.12 191.197 123.062 191.001 123.062C190.804 123.062 190.612 123.12 190.449 123.228C190.285 123.336 190.157 123.49 190.08 123.671L187.723 129.232C187.652 129.4 187.537 129.544 187.389 129.651C187.242 129.758 187.068 129.823 186.887 129.838L180.862 130.35C180.666 130.367 180.48 130.441 180.325 130.563C180.171 130.685 180.057 130.85 179.996 131.037C179.935 131.224 179.931 131.425 179.984 131.614C180.036 131.804 180.143 131.973 180.292 132.102L184.869 136.067C185.007 136.186 185.109 136.341 185.165 136.514C185.222 136.687 185.229 136.873 185.188 137.05L183.813 142.942C183.768 143.134 183.781 143.334 183.85 143.518C183.919 143.703 184.04 143.863 184.199 143.978C184.358 144.094 184.548 144.16 184.745 144.168C184.941 144.177 185.136 144.127 185.304 144.025L190.484 140.899C190.64 140.805 190.818 140.755 191.001 140.755C191.183 140.755 191.361 140.805 191.517 140.899L196.7 144.028C196.868 144.129 197.063 144.179 197.259 144.17C197.455 144.162 197.644 144.096 197.803 143.98C197.962 143.865 198.084 143.705 198.152 143.521C198.221 143.337 198.234 143.137 198.19 142.946L196.823 137.049C196.782 136.872 196.79 136.687 196.847 136.514C196.903 136.341 197.006 136.187 197.143 136.068L201.716 132.098C201.864 131.969 201.971 131.8 202.024 131.61C202.076 131.421 202.072 131.221 202.011 131.034C201.95 130.847 201.836 130.682 201.682 130.56C201.528 130.438 201.342 130.364 201.146 130.347ZM191 138.25V126.625L193.137 131.675L198.613 132.15L194.463 135.75L195.713 141.1L191 138.25Z" fill="#747776"/>
</svg>
